<svg width="70" height="70" viewBox="0 0 70 70" fill="none" xmlns="http://www.w3.org/2000/svg">
<rect width="70" height="70" rx="20" fill="#07BFFF"/>
<path d="M22.7286 35.5062C22.7286 30.5683 25.7852 26.3313 30.1054 24.5865L32.3098 20.1587C24.795 21.2263 18.9971 27.7013 18.9971 35.5062C18.9971 42.6072 23.7964 48.608 30.3214 50.4364L30.7454 46.6636C26.09 45.0929 22.7286 40.6848 22.7286 35.5062Z" fill="white"/>
<path d="M50.0029 35.5062C50.0029 28.4066 45.2057 22.407 38.6829 20.5771L38.2493 24.3472C42.9074 25.9164 46.2714 30.3258 46.2714 35.5062C46.2714 40.4154 43.2504 44.6315 38.9701 46.3951L36.7046 50.8516C44.2123 49.778 50.0029 43.3061 50.0029 35.5062Z" fill="white"/>
<path d="M43.3737 33.6275C43.5206 33.3385 43.5067 33.0209 43.337 32.7446C43.1675 32.4681 42.8664 32.3579 42.542 32.3579H35.4496L36.9764 19.0845C37.0284 18.6345 36.7495 18.1683 36.315 18.0393C36.2253 18.0127 36.1345 18 36.0448 18C35.7003 18 35.3748 18.196 35.2144 18.518L25.6229 37.7909C25.479 38.0799 25.4948 38.4649 25.6649 38.7396C25.835 39.0142 26.1349 39.2379 26.458 39.2379H33.4569L32.0221 52.0117C31.972 52.46 32.2496 52.837 32.6818 52.9662C32.7705 52.9928 32.8604 53 32.9492 53C33.2929 53 33.6185 52.8091 33.7809 52.4895L43.3737 33.6275Z" fill="white"/>
</svg>
